<svg width="10" height="10" viewBox="0 0 10 10" fill="none" xmlns="http://www.w3.org/2000/svg">
<path fill-rule="evenodd" clip-rule="evenodd" d="M1.66663 4.99998C1.66663 4.76986 1.85317 4.58331 2.08329 4.58331H7.91663C8.14674 4.58331 8.33329 4.76986 8.33329 4.99998C8.33329 5.2301 8.14674 5.41665 7.91663 5.41665H2.08329C1.85317 5.41665 1.66663 5.2301 1.66663 4.99998Z" fill="#60E2AE"/>
<path fill-rule="evenodd" clip-rule="evenodd" d="M4.70529 1.7887C4.86801 1.62598 5.13183 1.62598 5.29455 1.7887L8.21121 4.70536C8.37393 4.86808 8.37393 5.1319 8.21121 5.29462L5.29455 8.21128C5.13183 8.374 4.86801 8.374 4.70529 8.21128C4.54257 8.04857 4.54257 7.78475 4.70529 7.62203L7.32733 4.99999L4.70529 2.37795C4.54257 2.21523 4.54257 1.95141 4.70529 1.7887Z" fill="#60E2AE"/>
</svg>
