<svg width="10" height="10" viewBox="0 0 10 10" fill="none" xmlns="http://www.w3.org/2000/svg">
<g clip-path="url(#clip0_20_78)">
<path fill-rule="evenodd" clip-rule="evenodd" d="M3.88842 1.38838C3.79065 1.48615 3.75004 1.59384 3.75004 1.66666V2.08333H6.25004V1.66666C6.25004 1.59384 6.20943 1.48615 6.11166 1.38838C6.01389 1.2906 5.90619 1.25 5.83337 1.25H4.16671C4.09389 1.25 3.98619 1.2906 3.88842 1.38838ZM7.08337 2.08333V1.66666C7.08337 1.32282 6.91565 1.01385 6.70092 0.79912C6.48619 0.584392 6.17722 0.416664 5.83337 0.416664H4.16671C3.82286 0.416664 3.51389 0.584392 3.29916 0.79912C3.08444 1.01385 2.91671 1.32282 2.91671 1.66666V2.08333H1.25004C1.01992 2.08333 0.833374 2.26988 0.833374 2.5C0.833374 2.73012 1.01992 2.91666 1.25004 2.91666H1.66671V8.33333C1.66671 8.67718 1.83444 8.98615 2.04916 9.20088C2.26389 9.4156 2.57286 9.58333 2.91671 9.58333H7.08337C7.42722 9.58333 7.73619 9.4156 7.95092 9.20088C8.16565 8.98615 8.33337 8.67718 8.33337 8.33333V2.91666H8.75004C8.98016 2.91666 9.16671 2.73012 9.16671 2.5C9.16671 2.26988 8.98016 2.08333 8.75004 2.08333H7.08337ZM2.50004 2.91666V8.33333C2.50004 8.40615 2.54065 8.51385 2.63842 8.61162C2.73619 8.70939 2.84389 8.75 2.91671 8.75H7.08337C7.15619 8.75 7.26389 8.70939 7.36166 8.61162C7.45943 8.51385 7.50004 8.40615 7.50004 8.33333V2.91666H2.50004ZM4.16671 4.16666C4.39683 4.16666 4.58337 4.35321 4.58337 4.58333V7.08333C4.58337 7.31345 4.39683 7.5 4.16671 7.5C3.93659 7.5 3.75004 7.31345 3.75004 7.08333V4.58333C3.75004 4.35321 3.93659 4.16666 4.16671 4.16666ZM5.83337 4.16666C6.06349 4.16666 6.25004 4.35321 6.25004 4.58333V7.08333C6.25004 7.31345 6.06349 7.5 5.83337 7.5C5.60326 7.5 5.41671 7.31345 5.41671 7.08333V4.58333C5.41671 4.35321 5.60326 4.16666 5.83337 4.16666Z" fill="#E26062"/>
</g>
<defs>
<clipPath id="clip0_20_78">
<rect width="10" height="10" fill="white"/>
</clipPath>
</defs>
</svg>
